<svg width="31" height="31" viewBox="0 0 31 31" fill="none" xmlns="http://www.w3.org/2000/svg">
<circle opacity="0.75" cx="15.5" cy="15.5" r="15" stroke="white"/>
<g clip-path="url(#clip0_5_25)">
<path d="M7 8.04003C7 7.89845 7.05619 7.76267 7.15621 7.66256C7.25624 7.56245 7.3919 7.5062 7.53335 7.5062H9.1334C9.25237 7.50624 9.36791 7.54608 9.46166 7.6194C9.5554 7.69272 9.62196 7.79531 9.65075 7.91084L10.0828 9.64151H22.4671C22.5455 9.64158 22.6228 9.65892 22.6937 9.69228C22.7645 9.72564 22.8272 9.77421 22.8772 9.83455C22.9272 9.89488 22.9633 9.96549 22.9829 10.0414C23.0026 10.1172 23.0053 10.1965 22.9909 10.2736L21.3908 18.8148C21.368 18.9371 21.3031 19.0476 21.2075 19.1271C21.1118 19.2067 20.9914 19.2503 20.8671 19.2504H11.2668C11.1425 19.2503 11.0221 19.2067 10.9264 19.1271C10.8308 19.0476 10.7659 18.9371 10.743 18.8148L9.14407 10.2896L8.71739 8.57386H7.53335C7.3919 8.57386 7.25624 8.51761 7.15621 8.4175C7.05619 8.31739 7 8.18161 7 8.04003ZM10.3089 10.7092L11.7095 18.1827H20.4244L21.825 10.7092H10.3089ZM12.3335 19.2504C11.7677 19.2504 11.225 19.4754 10.825 19.8758C10.4249 20.2763 10.2001 20.8194 10.2001 21.3857C10.2001 21.952 10.4249 22.4952 10.825 22.8956C11.225 23.296 11.7677 23.521 12.3335 23.521C12.8993 23.521 13.4419 23.296 13.842 22.8956C14.2421 22.4952 14.4669 21.952 14.4669 21.3857C14.4669 20.8194 14.2421 20.2763 13.842 19.8758C13.4419 19.4754 12.8993 19.2504 12.3335 19.2504ZM19.8004 19.2504C19.2346 19.2504 18.6919 19.4754 18.2919 19.8758C17.8918 20.2763 17.667 20.8194 17.667 21.3857C17.667 21.952 17.8918 22.4952 18.2919 22.8956C18.6919 23.296 19.2346 23.521 19.8004 23.521C20.3662 23.521 20.9088 23.296 21.3089 22.8956C21.709 22.4952 21.9338 21.952 21.9338 21.3857C21.9338 20.8194 21.709 20.2763 21.3089 19.8758C20.9088 19.4754 20.3662 19.2504 19.8004 19.2504ZM12.3335 20.3181C12.6164 20.3181 12.8877 20.4305 13.0878 20.6308C13.2878 20.831 13.4002 21.1025 13.4002 21.3857C13.4002 21.6689 13.2878 21.9404 13.0878 22.1407C12.8877 22.3409 12.6164 22.4534 12.3335 22.4534C12.0506 22.4534 11.7793 22.3409 11.5792 22.1407C11.3792 21.9404 11.2668 21.6689 11.2668 21.3857C11.2668 21.1025 11.3792 20.831 11.5792 20.6308C11.7793 20.4305 12.0506 20.3181 12.3335 20.3181ZM19.8004 20.3181C20.0833 20.3181 20.3546 20.4305 20.5547 20.6308C20.7547 20.831 20.8671 21.1025 20.8671 21.3857C20.8671 21.6689 20.7547 21.9404 20.5547 22.1407C20.3546 22.3409 20.0833 22.4534 19.8004 22.4534C19.5175 22.4534 19.2462 22.3409 19.0461 22.1407C18.8461 21.9404 18.7337 21.6689 18.7337 21.3857C18.7337 21.1025 18.8461 20.831 19.0461 20.6308C19.2462 20.4305 19.5175 20.3181 19.8004 20.3181V20.3181Z" fill="white"/>
</g>
<defs>
<clipPath id="clip0_5_25">
<rect width="18" height="18.2641" fill="white" transform="translate(7 7.00047)"/>
</clipPath>
</defs>
</svg>
