<svg width="31" height="32" viewBox="0 0 31 32" fill="none" xmlns="http://www.w3.org/2000/svg">
<path d="M8 8.53383C8 8.39225 8.05619 8.25647 8.15621 8.15635C8.25624 8.05624 8.3919 8 8.53335 8H10.1334C10.2524 8.00003 10.3679 8.03988 10.4617 8.1132C10.5554 8.18652 10.622 8.2891 10.6507 8.40464L11.0828 10.1353H23.4671C23.5455 10.1354 23.6228 10.1527 23.6937 10.1861C23.7645 10.2194 23.8272 10.268 23.8772 10.3283C23.9272 10.3887 23.9633 10.4593 23.9829 10.5352C24.0026 10.611 24.0053 10.6903 23.9909 10.7674L22.3908 19.3086C22.368 19.4309 22.3031 19.5414 22.2075 19.6209C22.1118 19.7005 21.9914 19.7441 21.8671 19.7442H12.2668C12.1425 19.7441 12.0221 19.7005 11.9264 19.6209C11.8308 19.5414 11.7659 19.4309 11.743 19.3086L10.1441 10.7834L9.71739 9.06765H8.53335C8.3919 9.06765 8.25624 9.01141 8.15621 8.9113C8.05619 8.81119 8 8.67541 8 8.53383ZM11.3089 11.203L12.7095 18.6765H21.4244L22.825 11.203H11.3089ZM13.3335 19.7442C12.7677 19.7442 12.225 19.9692 11.825 20.3696C11.4249 20.7701 11.2001 21.3132 11.2001 21.8795C11.2001 22.4458 11.4249 22.9889 11.825 23.3894C12.225 23.7898 12.7677 24.0148 13.3335 24.0148C13.8993 24.0148 14.4419 23.7898 14.842 23.3894C15.2421 22.9889 15.4669 22.4458 15.4669 21.8795C15.4669 21.3132 15.2421 20.7701 14.842 20.3696C14.4419 19.9692 13.8993 19.7442 13.3335 19.7442ZM20.8004 19.7442C20.2346 19.7442 19.6919 19.9692 19.2919 20.3696C18.8918 20.7701 18.667 21.3132 18.667 21.8795C18.667 22.4458 18.8918 22.9889 19.2919 23.3894C19.6919 23.7898 20.2346 24.0148 20.8004 24.0148C21.3662 24.0148 21.9088 23.7898 22.3089 23.3894C22.709 22.9889 22.9338 22.4458 22.9338 21.8795C22.9338 21.3132 22.709 20.7701 22.3089 20.3696C21.9088 19.9692 21.3662 19.7442 20.8004 19.7442ZM13.3335 20.8119C13.6164 20.8119 13.8877 20.9243 14.0878 21.1246C14.2878 21.3248 14.4002 21.5963 14.4002 21.8795C14.4002 22.1627 14.2878 22.4342 14.0878 22.6345C13.8877 22.8347 13.6164 22.9472 13.3335 22.9472C13.0506 22.9472 12.7793 22.8347 12.5792 22.6345C12.3792 22.4342 12.2668 22.1627 12.2668 21.8795C12.2668 21.5963 12.3792 21.3248 12.5792 21.1246C12.7793 20.9243 13.0506 20.8119 13.3335 20.8119ZM20.8004 20.8119C21.0833 20.8119 21.3546 20.9243 21.5547 21.1246C21.7547 21.3248 21.8671 21.5963 21.8671 21.8795C21.8671 22.1627 21.7547 22.4342 21.5547 22.6345C21.3546 22.8347 21.0833 22.9472 20.8004 22.9472C20.5175 22.9472 20.2462 22.8347 20.0461 22.6345C19.8461 22.4342 19.7337 22.1627 19.7337 21.8795C19.7337 21.5963 19.8461 21.3248 20.0461 21.1246C20.2462 20.9243 20.5175 20.8119 20.8004 20.8119V20.8119Z" fill="black"/>
<path opacity="0.75" d="M30.5 15.7689C30.5 24.2098 23.7762 31.0378 15.5 31.0378C7.2238 31.0378 0.5 24.2098 0.5 15.7689C0.5 7.32798 7.2238 0.5 15.5 0.5C23.7762 0.5 30.5 7.32798 30.5 15.7689Z" stroke="black"/>
</svg>
